<svg width="30" height="30" viewBox="0 0 30 30" fill="none" xmlns="http://www.w3.org/2000/svg">
<path fill-rule="evenodd" clip-rule="evenodd" d="M5 7.72727C5 6.22104 6.22104 5 7.72727 5H22.2727C23.779 5 25 6.22104 25 7.72727V22.2727C25 23.779 23.779 25 22.2727 25H7.72727C6.22104 25 5 23.779 5 22.2727V7.72727ZM7.72727 6.81818C7.2252 6.81818 6.81818 7.2252 6.81818 7.72727V22.2727C6.81818 22.7748 7.2252 23.1818 7.72727 23.1818H22.2727C22.7748 23.1818 23.1818 22.7748 23.1818 22.2727V7.72727C23.1818 7.2252 22.7748 6.81818 22.2727 6.81818H7.72727Z" fill="#C4C4C4"/>
<path d="M18 6C18 5.44772 18.4477 5 19 5L29 5C29.5523 5 30 5.44772 30 6C30 6.55228 29.5523 7 29 7L19 7C18.4477 7 18 6.55228 18 6Z" fill="#F2ADAD"/>
<path d="M24 -4.37114e-08C24.5523 -1.95703e-08 25 0.447715 25 1L25 11C25 11.5523 24.5523 12 24 12C23.4477 12 23 11.5523 23 11L23 1C23 0.447715 23.4477 -6.78525e-08 24 -4.37114e-08Z" fill="#F2ADAD"/>
</svg>
