<svg width="31" height="31" viewBox="0 0 31 31"  xmlns="http://www.w3.org/2000/svg">
<path d="M2.8631 2.86302C4.05844 1.66768 5.99646 1.66768 7.1918 2.86302L28.8353 24.5066C30.0307 25.7019 30.0307 27.6399 28.8353 28.8353C27.64 30.0306 25.702 30.0306 24.5066 28.8353L2.8631 7.19173C1.66776 5.99639 1.66776 4.05836 2.8631 2.86302Z"  />
<path d="M28.8356 2.86323C30.0309 4.05857 30.0309 5.9966 28.8356 7.19194L7.19205 28.8355C5.99671 30.0308 4.05868 30.0308 2.86334 28.8355C1.66801 27.6401 1.66801 25.7021 2.86334 24.5068L24.5069 2.86323C25.7022 1.66789 27.6402 1.6679 28.8356 2.86323Z" />
</svg>
