<svg width="44" height="32" viewBox="0 0 44 32" fill="none" xmlns="http://www.w3.org/2000/svg">
<path d="M4.8842 15.9021L6.65271 12.0938" stroke="#fff7e4" stroke-width="2"/>
<path d="M10.5159 16.3885L10.3334 13.2314" stroke="#fff7e4" stroke-width="2"/>
<path d="M15.774 14.6965L14.1841 11.9629" stroke="#fff7e4" stroke-width="2"/>
<path d="M31.3781 15.9021L33.1466 12.0938" stroke="#fff7e4" stroke-width="2"/>
<path d="M37.0098 16.3885L36.8273 13.2314" stroke="#fff7e4" stroke-width="2"/>
<path d="M42.2679 14.6965L40.678 11.9629" stroke="#fff7e4" stroke-width="2"/>
<path d="M2 8C2 8.5 3.74845 13 9.5 13C15.2516 13 17 8.5 17 8" stroke="#fff7e4" stroke-width="2"/>
<path d="M28 8C28 8.5 29.7484 13 35.5 13C41.2516 13 43 8.5 43 8" stroke="#fff7e4" stroke-width="2"/>
<path d="M20.5923 14.3916L24.9019 15.7529L22.5404 19.6465" stroke="#fff7e4" stroke-width="2"/>
<path d="M15.3713 22.8848C16.8707 23.9397 20.8638 27.4841 27.3798 26.6469" stroke="#fff7e4" stroke-width="2"/>
</svg>
