<svg width="20" height="20" viewBox="0 0 20 20" fill="none" xmlns="http://www.w3.org/2000/svg">
<path fill-rule="evenodd" clip-rule="evenodd" d="M10.5043 14.5043C10.078 14.9306 9.38688 14.9306 8.9606 14.5043L1.77185 7.31554C1.34557 6.88926 1.34557 6.19813 1.77185 5.77185V5.77185C2.19813 5.34557 2.88926 5.34557 3.31554 5.77185L10.5043 12.9606C10.9306 13.3869 10.9306 14.078 10.5043 14.5043V14.5043Z" fill="#764a00"/>
<path fill-rule="evenodd" clip-rule="evenodd" d="M17.6931 5.77185C18.1193 6.19813 18.1193 6.88927 17.6931 7.31554L10.5043 14.5043C10.078 14.9306 9.38688 14.9306 8.9606 14.5043V14.5043C8.53432 14.078 8.53432 13.3869 8.9606 12.9606L16.1494 5.77185C16.5756 5.34557 17.2668 5.34557 17.6931 5.77185V5.77185Z" fill="#764a00"/>
</svg>
