<svg width="311" height="86" viewBox="0 0 311 86" fill="none" xmlns="http://www.w3.org/2000/svg">
<path d="M272.245 83.091L273.71 84.5555C274.491 85.3366 275.757 85.3366 276.538 84.5555L280.124 80.9697H0.124023L3.70981 84.5555C4.49084 85.3366 5.75717 85.3366 6.53824 84.5555L8.00272 83.091C9.17429 81.9195 11.0738 81.9195 12.2453 83.091L13.7098 84.5555C14.4908 85.3366 15.7572 85.3366 16.5382 84.5555L18.0027 83.091C19.1743 81.9195 21.0738 81.9195 22.2453 83.091L23.7098 84.5555C24.4909 85.3366 25.7572 85.3366 26.5382 84.5555L28.0027 83.091C29.1743 81.9195 31.0738 81.9195 32.2453 83.091L33.7098 84.5555C34.4909 85.3366 35.7572 85.3366 36.5382 84.5555L38.0027 83.091C39.1743 81.9195 41.0738 81.9195 42.2453 83.091L43.7098 84.5555C44.4909 85.3366 45.7572 85.3366 46.5382 84.5555L48.0027 83.091C49.1743 81.9195 51.0738 81.9195 52.2453 83.091L53.7098 84.5555C54.4909 85.3366 55.7572 85.3366 56.5382 84.5555L58.0027 83.091C59.1743 81.9195 61.0738 81.9195 62.2453 83.091L63.7098 84.5555C64.4909 85.3366 65.7572 85.3366 66.5382 84.5555L68.0027 83.091C69.1743 81.9195 71.0738 81.9195 72.2453 83.091L73.7098 84.5555C74.4909 85.3366 75.7572 85.3366 76.5382 84.5555L78.0027 83.091C79.1743 81.9195 81.0738 81.9195 82.2453 83.091L83.7098 84.5555C84.4909 85.3366 85.7572 85.3366 86.5382 84.5555L88.0027 83.091C89.1743 81.9195 91.0738 81.9195 92.2453 83.091L93.7098 84.5555C94.4909 85.3366 95.7572 85.3366 96.5382 84.5555L98.0027 83.091C99.1743 81.9195 101.074 81.9195 102.245 83.091L103.71 84.5555C104.491 85.3366 105.757 85.3366 106.538 84.5555L108.003 83.091C109.174 81.9195 111.074 81.9195 112.245 83.091L113.71 84.5555C114.491 85.3366 115.757 85.3366 116.538 84.5555L118.003 83.091C119.174 81.9195 121.074 81.9195 122.245 83.091L123.71 84.5555C124.491 85.3366 125.757 85.3366 126.538 84.5555L128.003 83.091C129.174 81.9195 131.074 81.9195 132.245 83.091L133.71 84.5555C134.491 85.3366 135.757 85.3366 136.538 84.5555L138.003 83.091C139.174 81.9195 141.074 81.9195 142.245 83.091L143.71 84.5555C144.491 85.3366 145.757 85.3366 146.538 84.5555L148.003 83.091C149.174 81.9195 151.074 81.9195 152.245 83.091L153.71 84.5555C154.491 85.3366 155.757 85.3366 156.538 84.5555L158.003 83.091C159.174 81.9195 161.074 81.9195 162.245 83.091L163.71 84.5555C164.491 85.3366 165.757 85.3366 166.538 84.5555L168.003 83.091C169.174 81.9195 171.074 81.9195 172.245 83.091L173.71 84.5555C174.491 85.3366 175.757 85.3366 176.538 84.5555L178.003 83.091C179.174 81.9195 181.074 81.9195 182.245 83.091L183.71 84.5555C184.491 85.3366 185.757 85.3366 186.538 84.5555L188.003 83.091C189.174 81.9195 191.074 81.9195 192.245 83.091L193.71 84.5555C194.491 85.3366 195.757 85.3366 196.538 84.5555L198.003 83.091C199.174 81.9195 201.074 81.9195 202.245 83.091L203.71 84.5555C204.491 85.3366 205.757 85.3366 206.538 84.5555L208.003 83.091C209.174 81.9195 211.074 81.9195 212.245 83.091L213.71 84.5555C214.491 85.3366 215.757 85.3366 216.538 84.5555L218.003 83.091C219.174 81.9195 221.074 81.9195 222.245 83.091L223.71 84.5555C224.491 85.3366 225.757 85.3366 226.538 84.5555L228.003 83.091C229.174 81.9195 231.074 81.9195 232.245 83.091L233.71 84.5555C234.491 85.3366 235.757 85.3366 236.538 84.5555L238.003 83.091C239.174 81.9195 241.074 81.9195 242.245 83.091L243.71 84.5555C244.491 85.3366 245.757 85.3366 246.538 84.5555L248.003 83.091C249.174 81.9195 251.074 81.9195 252.245 83.091L253.71 84.5555C254.491 85.3366 255.757 85.3366 256.538 84.5555L258.003 83.091C259.174 81.9195 261.074 81.9195 262.245 83.091L263.71 84.5555C264.491 85.3366 265.757 85.3366 266.538 84.5555L268.003 83.091C269.174 81.9195 271.074 81.9195 272.245 83.091Z" fill="#F3EFE9"/>
<path d="M252.71 0.969727H296.124C303.856 0.969727 310.124 7.23774 310.124 14.9697V40.9697H252.71V0.969727Z" fill="#EAD9C1"/>
<path fill-rule="evenodd" clip-rule="evenodd" d="M15.1241 0.969727C6.83987 0.969727 0.124146 7.68546 0.124146 15.9697V80.9697H280.124V15.9697C280.124 8.19635 286.037 1.80402 293.611 1.04514V0.969727H15.1241Z" fill="#F3EFE9"/>
</svg>
