<svg width="50" height="50" viewBox="0 0 50 50" fill="none" xmlns="http://www.w3.org/2000/svg">
<path d="M8 12C8 9.23858 10.2386 7 13 7H18C20.7614 7 23 9.23858 23 12V12C23 14.7614 20.7614 17 18 17H13C10.2386 17 8 14.7614 8 12V12Z" fill="#C4C4C4"/>
<path d="M27 38C27 35.2386 29.2386 33 32 33H37C39.7614 33 42 35.2386 42 38V38C42 40.7614 39.7614 43 37 43H32C29.2386 43 27 40.7614 27 38V38Z" fill="#C4C4C4"/>
<path d="M8 38C8 35.2386 10.2386 33 13 33H18C20.7614 33 23 35.2386 23 38V38C23 40.7614 20.7614 43 18 43H13C10.2386 43 8 40.7614 8 38V38Z" fill="#C4C4C4"/>
<path d="M27 12C27 9.23858 29.2386 7 32 7H37C39.7614 7 42 9.23858 42 12V12C42 14.7614 39.7614 17 37 17H32C29.2386 17 27 14.7614 27 12V12Z" fill="#C4C4C4"/>
<path d="M8 25C8 22.2386 10.2386 20 13 20H18C20.7614 20 23 22.2386 23 25V25C23 27.7614 20.7614 30 18 30H13C10.2386 30 8 27.7614 8 25V25Z" fill="#C4C4C4"/>
<path d="M27 25C27 22.2386 29.2386 20 32 20H37C39.7614 20 42 22.2386 42 25V25C42 27.7614 39.7614 30 37 30H32C29.2386 30 27 27.7614 27 25V25Z" fill="#C4C4C4"/>
</svg>
