<svg width="31" height="32" viewBox="0 0 31 32" fill="none" xmlns="http://www.w3.org/2000/svg">
<path d="M20.098 5.90204C20.4041 5.5959 20.8669 5.56232 21.1316 5.82705L25.6077 10.3032C25.8725 10.5679 25.8389 11.0307 25.5328 11.3368L11.424 25.4455C11.1179 25.7517 10.6551 25.7852 10.3904 25.5205L5.91429 21.0444C5.64956 20.7797 5.68313 20.3169 5.98928 20.0107L20.098 5.90204Z" fill="#C4C4C4"/>
<path d="M24.8812 1.11878C24.9468 1.05318 25.2146 1.2146 25.4793 1.47933L29.9554 5.95544C30.2202 6.22016 30.3816 6.48795 30.316 6.55355L27.2927 9.57684C27.2271 9.64245 26.9593 9.48102 26.6946 9.2163L22.2185 4.74019C21.9537 4.47546 21.7923 4.20768 21.8579 4.14208L24.8812 1.11878Z" fill="#C4C4C4"/>
<path d="M3.38764 28.93C2.88635 29.0389 2.39592 28.5485 2.50486 28.0472L3.73039 22.4077C3.83933 21.9065 4.46593 21.7703 4.85828 22.1626L9.27218 26.5765C9.66453 26.9689 9.52836 27.5955 9.02707 27.7044L3.38764 28.93Z" fill="#C4C4C4"/>
</svg>
