<svg width="311" height="86" viewBox="0 0 311 86" fill="none" xmlns="http://www.w3.org/2000/svg">
<rect x="0.124146" y="5.94141" width="280" height="75" fill="#F3EFE9"/>
<path d="M267.245 3.82009L268.71 2.35562C269.491 1.57457 270.757 1.57457 271.538 2.35562L273.003 3.82009C274.174 4.99166 276.074 4.99166 277.245 3.82009L279.271 1.79496C279.586 1.47998 280.124 1.70306 280.124 2.14851V5.94141H0.124146V2.14851C0.124146 1.70306 0.66272 1.47998 0.977692 1.79496L3.00284 3.82009C4.17441 4.99166 6.07388 4.99166 7.24545 3.82009L8.70993 2.35562C9.49097 1.57457 10.7573 1.57457 11.5384 2.35562L13.0028 3.82009C14.1744 4.99166 16.0739 4.99166 17.2455 3.82009L18.7099 2.35562C19.491 1.57457 20.7573 1.57457 21.5384 2.35562L23.0028 3.82009C24.1744 4.99166 26.0739 4.99166 27.2455 3.82009L28.7099 2.35562C29.491 1.57457 30.7573 1.57457 31.5384 2.35562L33.0028 3.82009C34.1744 4.99166 36.0739 4.99166 37.2455 3.82009L38.7099 2.35562C39.491 1.57457 40.7573 1.57457 41.5384 2.35562L43.0028 3.82009C44.1744 4.99166 46.0739 4.99166 47.2455 3.82009L48.7099 2.35562C49.491 1.57457 50.7573 1.57457 51.5384 2.35562L53.0028 3.82009C54.1744 4.99166 56.0739 4.99166 57.2455 3.82009L58.7099 2.35562C59.491 1.57457 60.7573 1.57457 61.5384 2.35562L63.0028 3.82009C64.1744 4.99166 66.0739 4.99166 67.2455 3.82009L68.7099 2.35562C69.491 1.57457 70.7573 1.57457 71.5384 2.35562L73.0028 3.82009C74.1744 4.99166 76.0739 4.99166 77.2455 3.82009L78.7099 2.35562C79.491 1.57457 80.7573 1.57457 81.5384 2.35562L83.0028 3.82009C84.1744 4.99166 86.0739 4.99166 87.2455 3.82009L88.7099 2.35562C89.491 1.57457 90.7573 1.57457 91.5384 2.35562L93.0028 3.82009C94.1744 4.99166 96.0739 4.99166 97.2455 3.82009L98.7099 2.35562C99.491 1.57457 100.757 1.57457 101.538 2.35562L103.003 3.82009C104.174 4.99166 106.074 4.99166 107.245 3.82009L108.71 2.35562C109.491 1.57457 110.757 1.57457 111.538 2.35562L113.003 3.82009C114.174 4.99166 116.074 4.99166 117.245 3.82009L118.71 2.35562C119.491 1.57457 120.757 1.57457 121.538 2.35562L123.003 3.82009C124.174 4.99166 126.074 4.99166 127.245 3.82009L128.71 2.35562C129.491 1.57457 130.757 1.57457 131.538 2.35562L133.003 3.82009C134.174 4.99166 136.074 4.99166 137.245 3.82009L138.71 2.35562C139.491 1.57457 140.757 1.57457 141.538 2.35562L143.003 3.82009C144.174 4.99166 146.074 4.99166 147.245 3.82009L148.71 2.35562C149.491 1.57457 150.757 1.57457 151.538 2.35562L153.003 3.82009C154.174 4.99166 156.074 4.99166 157.245 3.82009L158.71 2.35562C159.491 1.57457 160.757 1.57457 161.538 2.35562L163.003 3.82009C164.174 4.99166 166.074 4.99166 167.245 3.82009L168.71 2.35562C169.491 1.57457 170.757 1.57457 171.538 2.35562L173.003 3.82009C174.174 4.99166 176.074 4.99166 177.245 3.82009L178.71 2.35562C179.491 1.57457 180.757 1.57457 181.538 2.35562L183.003 3.82009C184.174 4.99166 186.074 4.99166 187.245 3.82009L188.71 2.35562C189.491 1.57457 190.757 1.57457 191.538 2.35562L193.003 3.82009C194.174 4.99166 196.074 4.99166 197.245 3.82009L198.71 2.35562C199.491 1.57457 200.757 1.57457 201.538 2.35562L203.003 3.82009C204.174 4.99166 206.074 4.99166 207.245 3.82009L208.71 2.35562C209.491 1.57457 210.757 1.57457 211.538 2.35562L213.003 3.82009C214.174 4.99166 216.074 4.99166 217.245 3.82009L218.71 2.35562C219.491 1.57457 220.757 1.57457 221.538 2.35562L223.003 3.82009C224.174 4.99166 226.074 4.99166 227.245 3.82009L228.71 2.35562C229.491 1.57457 230.757 1.57457 231.538 2.35562L233.003 3.82009C234.174 4.99166 236.074 4.99166 237.245 3.82009L238.71 2.35562C239.491 1.57457 240.757 1.57457 241.538 2.35562L243.003 3.82009C244.174 4.99166 246.074 4.99166 247.245 3.82009L248.71 2.35562C249.491 1.57457 250.757 1.57457 251.538 2.35562L253.003 3.82009C254.174 4.99166 256.074 4.99166 257.245 3.82009L258.71 2.35562C259.491 1.57457 260.757 1.57457 261.538 2.35562L263.003 3.82009C264.174 4.99166 266.074 4.99166 267.245 3.82009Z" fill="#F3EFE9"/>
<path d="M272.245 83.0627L273.71 84.5272C274.491 85.3082 275.757 85.3082 276.538 84.5272L280.124 80.9414H0.124146L3.70993 84.5272C4.49097 85.3082 5.75729 85.3082 6.53836 84.5272L8.00284 83.0627C9.17441 81.8912 11.0739 81.8912 12.2455 83.0627L13.7099 84.5272C14.491 85.3082 15.7573 85.3082 16.5384 84.5272L18.0028 83.0627C19.1744 81.8912 21.0739 81.8912 22.2455 83.0627L23.7099 84.5272C24.491 85.3082 25.7573 85.3082 26.5384 84.5272L28.0028 83.0627C29.1744 81.8912 31.0739 81.8912 32.2455 83.0627L33.7099 84.5272C34.491 85.3082 35.7573 85.3082 36.5384 84.5272L38.0028 83.0627C39.1744 81.8912 41.0739 81.8912 42.2455 83.0627L43.7099 84.5272C44.491 85.3082 45.7573 85.3082 46.5384 84.5272L48.0028 83.0627C49.1744 81.8912 51.0739 81.8912 52.2455 83.0627L53.7099 84.5272C54.491 85.3082 55.7573 85.3082 56.5384 84.5272L58.0028 83.0627C59.1744 81.8912 61.0739 81.8912 62.2455 83.0627L63.7099 84.5272C64.491 85.3082 65.7573 85.3082 66.5384 84.5272L68.0028 83.0627C69.1744 81.8912 71.0739 81.8912 72.2455 83.0627L73.7099 84.5272C74.491 85.3082 75.7573 85.3082 76.5384 84.5272L78.0028 83.0627C79.1744 81.8912 81.0739 81.8912 82.2455 83.0627L83.7099 84.5272C84.491 85.3082 85.7573 85.3082 86.5384 84.5272L88.0028 83.0627C89.1744 81.8912 91.0739 81.8912 92.2455 83.0627L93.7099 84.5272C94.491 85.3082 95.7573 85.3082 96.5384 84.5272L98.0028 83.0627C99.1744 81.8912 101.074 81.8912 102.245 83.0627L103.71 84.5272C104.491 85.3082 105.757 85.3082 106.538 84.5272L108.003 83.0627C109.174 81.8912 111.074 81.8912 112.245 83.0627L113.71 84.5272C114.491 85.3082 115.757 85.3082 116.538 84.5272L118.003 83.0627C119.174 81.8912 121.074 81.8912 122.245 83.0627L123.71 84.5272C124.491 85.3082 125.757 85.3082 126.538 84.5272L128.003 83.0627C129.174 81.8912 131.074 81.8912 132.245 83.0627L133.71 84.5272C134.491 85.3082 135.757 85.3082 136.538 84.5272L138.003 83.0627C139.174 81.8912 141.074 81.8912 142.245 83.0627L143.71 84.5272C144.491 85.3082 145.757 85.3082 146.538 84.5272L148.003 83.0627C149.174 81.8912 151.074 81.8912 152.245 83.0627L153.71 84.5272C154.491 85.3082 155.757 85.3082 156.538 84.5272L158.003 83.0627C159.174 81.8912 161.074 81.8912 162.245 83.0627L163.71 84.5272C164.491 85.3082 165.757 85.3082 166.538 84.5272L168.003 83.0627C169.174 81.8912 171.074 81.8912 172.245 83.0627L173.71 84.5272C174.491 85.3082 175.757 85.3082 176.538 84.5272L178.003 83.0627C179.174 81.8912 181.074 81.8912 182.245 83.0627L183.71 84.5272C184.491 85.3082 185.757 85.3082 186.538 84.5272L188.003 83.0627C189.174 81.8912 191.074 81.8912 192.245 83.0627L193.71 84.5272C194.491 85.3082 195.757 85.3082 196.538 84.5272L198.003 83.0627C199.174 81.8912 201.074 81.8912 202.245 83.0627L203.71 84.5272C204.491 85.3082 205.757 85.3082 206.538 84.5272L208.003 83.0627C209.174 81.8912 211.074 81.8912 212.245 83.0627L213.71 84.5272C214.491 85.3082 215.757 85.3082 216.538 84.5272L218.003 83.0627C219.174 81.8912 221.074 81.8912 222.245 83.0627L223.71 84.5272C224.491 85.3082 225.757 85.3082 226.538 84.5272L228.003 83.0627C229.174 81.8912 231.074 81.8912 232.245 83.0627L233.71 84.5272C234.491 85.3082 235.757 85.3082 236.538 84.5272L238.003 83.0627C239.174 81.8912 241.074 81.8912 242.245 83.0627L243.71 84.5272C244.491 85.3082 245.757 85.3082 246.538 84.5272L248.003 83.0627C249.174 81.8912 251.074 81.8912 252.245 83.0627L253.71 84.5272C254.491 85.3082 255.757 85.3082 256.538 84.5272L258.003 83.0627C259.174 81.8912 261.074 81.8912 262.245 83.0627L263.71 84.5272C264.491 85.3082 265.757 85.3082 266.538 84.5272L268.003 83.0627C269.174 81.8912 271.074 81.8912 272.245 83.0627Z" fill="#F3EFE9"/>
</svg>
